<?xml version="1.0" standalone="no"?>
<!DOCTYPE svg PUBLIC "-//W3C//DTD SVG 1.1//EN" "http://www.w3.org/Graphics/SVG/1.1/DTD/svg11.dtd">
<svg version="1.1" xmlns="http://www.w3.org/2000/svg" viewBox="0 0 118.00000000000001 118.00000000000011" width="118.00000000000001" height="118.00000000000011"><!-- svg-source:excalidraw --><metadata></metadata><defs><style class="style-fonts">
      </style></defs><g stroke-linecap="round" transform="translate(10 10) rotate(0 49.00000000000001 49.00000000000006)"><path d="M24.5 0 C42.35 0, 60.2 0, 73.5 0 C89.83 0, 98 8.17, 98 24.5 C98 42.46, 98 60.41, 98 73.5 C98 89.83, 89.83 98, 73.5 98 C55.47 98, 37.44 98, 24.5 98 C8.17 98, 0 89.83, 0 73.5 C0 54.54, 0 35.59, 0 24.5 C0 8.17, 8.17 0, 24.5 0" stroke="none" stroke-width="0" fill="#15aabf"></path><path d="M24.5 0 C34.42 0, 44.34 0, 73.5 0 M24.5 0 C38.33 0, 52.16 0, 73.5 0 M73.5 0 C89.83 0, 98 8.17, 98 24.5 M73.5 0 C89.83 0, 98 8.17, 98 24.5 M98 24.5 C98 42.1, 98 59.7, 98 73.5 M98 24.5 C98 38.99, 98 53.48, 98 73.5 M98 73.5 C98 89.83, 89.83 98, 73.5 98 M98 73.5 C98 89.83, 89.83 98, 73.5 98 M73.5 98 C57.73 98, 41.96 98, 24.5 98 M73.5 98 C56.43 98, 39.35 98, 24.5 98 M24.5 98 C8.17 98, 0 89.83, 0 73.5 M24.5 98 C8.17 98, 0 89.83, 0 73.5 M0 73.5 C0 54.35, 0 35.19, 0 24.5 M0 73.5 C0 62.97, 0 52.43, 0 24.5 M0 24.5 C0 8.17, 8.17 0, 24.5 0 M0 24.5 C0 8.17, 8.17 0, 24.5 0" stroke="#15aabf" stroke-width="4" fill="none"></path></g><g stroke-linecap="round" transform="translate(21.150408567510894 18.857838877659788) rotate(0 30.90674670407103 28.453814800498265)"><path d="M14.23 0 C22.3 0, 30.37 0, 47.59 0 C57.07 0, 61.81 4.74, 61.81 14.23 C61.81 24.68, 61.81 35.14, 61.81 42.68 C61.81 52.17, 57.07 56.91, 47.59 56.91 C40.58 56.91, 33.57 56.91, 14.23 56.91 C4.74 56.91, 0 52.17, 0 42.68 C0 31.91, 0 21.13, 0 14.23 C0 4.74, 4.74 0, 14.23 0" stroke="none" stroke-width="0" fill="#15aabf"></path><path d="M14.23 0 C21.81 0, 29.39 0, 47.59 0 M14.23 0 C25.84 0, 37.44 0, 47.59 0 M47.59 0 C57.07 0, 61.81 4.74, 61.81 14.23 M47.59 0 C57.07 0, 61.81 4.74, 61.81 14.23 M61.81 14.23 C61.81 24.08, 61.81 33.94, 61.81 42.68 M61.81 14.23 C61.81 23.44, 61.81 32.65, 61.81 42.68 M61.81 42.68 C61.81 52.17, 57.07 56.91, 47.59 56.91 M61.81 42.68 C61.81 52.17, 57.07 56.91, 47.59 56.91 M47.59 56.91 C38.29 56.91, 28.99 56.91, 14.23 56.91 M47.59 56.91 C38.59 56.91, 29.59 56.91, 14.23 56.91 M14.23 56.91 C4.74 56.91, 0 52.17, 0 42.68 M14.23 56.91 C4.74 56.91, 0 52.17, 0 42.68 M0 42.68 C0 34.39, 0 26.1, 0 14.23 M0 42.68 C0 31.73, 0 20.78, 0 14.23 M0 14.23 C0 4.74, 4.74 0, 14.23 0 M0 14.23 C0 4.74, 4.74 0, 14.23 0" stroke="#15aabf" stroke-width="4" fill="none"></path></g><g stroke-linecap="round" transform="translate(28.333333333333343 28.33333333333337) rotate(0 28.24993908689235 29.238845865353312)"><path d="M14.12 0 C24.76 0, 35.4 0, 42.37 0 M14.12 0 C24.9 0, 35.68 0, 42.37 0 M42.37 0 C51.79 0, 56.5 4.71, 56.5 14.12 M42.37 0 C51.79 0, 56.5 4.71, 56.5 14.12 M56.5 14.12 C56.5 23.1, 56.5 32.07, 56.5 44.35 M56.5 14.12 C56.5 21.18, 56.5 28.24, 56.5 44.35 M56.5 44.35 C56.5 53.77, 51.79 58.48, 42.37 58.48 M56.5 44.35 C56.5 53.77, 51.79 58.48, 42.37 58.48 M42.37 58.48 C32.16 58.48, 21.95 58.48, 14.12 58.48 M42.37 58.48 C35.74 58.48, 29.11 58.48, 14.12 58.48 M14.12 58.48 C4.71 58.48, 0 53.77, 0 44.35 M14.12 58.48 C4.71 58.48, 0 53.77, 0 44.35 M0 44.35 C0 35.74, 0 27.12, 0 14.12 M0 44.35 C0 37.47, 0 30.59, 0 14.12 M0 14.12 C0 4.71, 4.71 0, 14.12 0 M0 14.12 C0 4.71, 4.71 0, 14.12 0" stroke="#1864ab" stroke-width="4" fill="none"></path></g><g stroke-linecap="round" transform="translate(42.666666666666785 42.66666666666674) rotate(0 25.397488253663862 23.381801846921462)"><path d="M0 0 L50.79 0 L50.79 46.76 L0 46.76" stroke="none" stroke-width="0" fill="#15aabf"></path><path d="M0 0 C16.06 0, 32.13 0, 50.79 0 M0 0 C19.7 0, 39.4 0, 50.79 0 M50.79 0 C50.79 15.16, 50.79 30.32, 50.79 46.76 M50.79 0 C50.79 15.04, 50.79 30.08, 50.79 46.76 M50.79 46.76 C33.75 46.76, 16.7 46.76, 0 46.76 M50.79 46.76 C34.97 46.76, 19.14 46.76, 0 46.76 M0 46.76 C0 29.85, 0 12.95, 0 0 M0 46.76 C0 35.78, 0 24.8, 0 0" stroke="#15aabf" stroke-width="4" fill="none"></path></g><g stroke-linecap="round" transform="translate(73 45.000000000000114) rotate(0 8.434599295035488 7.90148558414694)"><path d="M0 0 C4.63 0, 9.26 0, 16.87 0 M0 0 C6 0, 12 0, 16.87 0 M16.87 0 C16.87 5.68, 16.87 11.35, 16.87 15.8 M16.87 0 C16.87 4.67, 16.87 9.35, 16.87 15.8 M16.87 15.8 C10.77 15.8, 4.68 15.8, 0 15.8 M16.87 15.8 C13.49 15.8, 10.12 15.8, 0 15.8 M0 15.8 C0 9.93, 0 4.06, 0 0 M0 15.8 C0 11.94, 0 8.08, 0 0" stroke="#ffffff" stroke-width="4" fill="none"></path></g><g stroke-linecap="round" transform="translate(45.65326112037553 73.30391230516557) rotate(179.51630973549064 8.43459929503549 7.90148558414694)"><path d="M0 0 C3.98 0, 7.96 0, 16.87 0 M0 0 C6.15 0, 12.3 0, 16.87 0 M16.87 0 C16.87 5.47, 16.87 10.95, 16.87 15.8 M16.87 0 C16.87 5.12, 16.87 10.23, 16.87 15.8 M16.87 15.8 C11.75 15.8, 6.62 15.8, 0 15.8 M16.87 15.8 C12.88 15.8, 8.9 15.8, 0 15.8 M0 15.8 C0 10.51, 0 5.22, 0 0 M0 15.8 C0 12.32, 0 8.85, 0 0" stroke="#ffffff" stroke-width="4" fill="none"></path></g><g stroke-linecap="round" transform="translate(72.99996599574688 73.000036031984) rotate(179.51630973549064 8.723630790882467 8.232666933698852)"><path d="M17.45 8.23 C17.45 8.71, 17.4 9.19, 17.31 9.66 C17.23 10.13, 17.09 10.6, 16.92 11.05 C16.75 11.5, 16.53 11.94, 16.28 12.35 C16.03 12.76, 15.73 13.16, 15.41 13.52 C15.08 13.89, 14.72 14.23, 14.33 14.54 C13.94 14.85, 13.52 15.12, 13.09 15.36 C12.65 15.6, 12.18 15.81, 11.71 15.97 C11.23 16.13, 10.74 16.26, 10.24 16.34 C9.74 16.42, 9.23 16.47, 8.72 16.47 C8.22 16.47, 7.71 16.42, 7.21 16.34 C6.71 16.26, 6.21 16.13, 5.74 15.97 C5.27 15.81, 4.8 15.6, 4.36 15.36 C3.92 15.12, 3.5 14.85, 3.12 14.54 C2.73 14.23, 2.37 13.89, 2.04 13.52 C1.72 13.16, 1.42 12.76, 1.17 12.35 C0.92 11.94, 0.7 11.5, 0.53 11.05 C0.35 10.6, 0.22 10.13, 0.13 9.66 C0.04 9.19, 0 8.71, 0 8.23 C0 7.76, 0.04 7.27, 0.13 6.8 C0.22 6.33, 0.35 5.86, 0.53 5.42 C0.7 4.97, 0.92 4.53, 1.17 4.12 C1.42 3.7, 1.72 3.31, 2.04 2.94 C2.37 2.58, 2.73 2.23, 3.12 1.93 C3.5 1.62, 3.92 1.34, 4.36 1.1 C4.8 0.86, 5.27 0.66, 5.74 0.5 C6.21 0.33, 6.71 0.21, 7.21 0.13 C7.71 0.04, 8.22 0, 8.72 0 C9.23 0, 9.74 0.04, 10.24 0.13 C10.74 0.21, 11.23 0.33, 11.71 0.5 C12.18 0.66, 12.65 0.86, 13.09 1.1 C13.52 1.34, 13.94 1.62, 14.33 1.93 C14.72 2.23, 15.08 2.58, 15.41 2.94 C15.73 3.31, 16.03 3.7, 16.28 4.12 C16.53 4.53, 16.75 4.97, 16.92 5.42 C17.09 5.86, 17.23 6.33, 17.31 6.8 C17.4 7.27, 17.43 7.99, 17.45 8.23 C17.47 8.47, 17.47 7.99, 17.45 8.23" stroke="#ffffff" stroke-width="4" fill="none"></path></g><g stroke-linecap="round" transform="translate(45.098315512697084 45.65602018934487) rotate(313.130866153272 8.43459929503549 7.90148558414694)"><path d="M0 0 C5.46 0, 10.93 0, 16.87 0 M0 0 C5.19 0, 10.38 0, 16.87 0 M16.87 0 C16.87 5.09, 16.87 10.18, 16.87 15.8 M16.87 0 C16.87 4.95, 16.87 9.89, 16.87 15.8 M16.87 15.8 C13.42 15.8, 9.97 15.8, 0 15.8 M16.87 15.8 C11.53 15.8, 6.19 15.8, 0 15.8 M0 15.8 C0 9.89, 0 3.98, 0 0 M0 15.8 C0 10.62, 0 5.43, 0 0" stroke="#ffffff" stroke-width="4" fill="none"></path></g></svg>