<?xml version="1.0" standalone="no"?>
<!DOCTYPE svg PUBLIC "-//W3C//DTD SVG 1.1//EN" "http://www.w3.org/Graphics/SVG/1.1/DTD/svg11.dtd">
<svg version="1.1" xmlns="http://www.w3.org/2000/svg" viewBox="0 0 74 74" width="148" height="148"><!-- svg-source:excalidraw --><metadata></metadata><defs><style class="style-fonts">
      </style></defs><rect x="0" y="0" width="74" height="74" fill="#ffffff"></rect><g stroke-linecap="round" transform="translate(10 10) rotate(0 27 27)"><path d="M13.5 0 C22.52 0, 31.53 0, 40.5 0 C49.5 0, 54 4.5, 54 13.5 C54 22.09, 54 30.68, 54 40.5 C54 49.5, 49.5 54, 40.5 54 C31.08 54, 21.66 54, 13.5 54 C4.5 54, 0 49.5, 0 40.5 C0 33.6, 0 26.69, 0 13.5 C0 4.5, 4.5 0, 13.5 0" stroke="none" stroke-width="0" fill="#15aabf"></path><path d="M13.5 0 C21.68 0, 29.85 0, 40.5 0 M13.5 0 C19.67 0, 25.85 0, 40.5 0 M40.5 0 C49.5 0, 54 4.5, 54 13.5 M40.5 0 C49.5 0, 54 4.5, 54 13.5 M54 13.5 C54 20.18, 54 26.87, 54 40.5 M54 13.5 C54 23.9, 54 34.31, 54 40.5 M54 40.5 C54 49.5, 49.5 54, 40.5 54 M54 40.5 C54 49.5, 49.5 54, 40.5 54 M40.5 54 C31.65 54, 22.8 54, 13.5 54 M40.5 54 C31.3 54, 22.1 54, 13.5 54 M13.5 54 C4.5 54, 0 49.5, 0 40.5 M13.5 54 C4.5 54, 0 49.5, 0 40.5 M0 40.5 C0 31.73, 0 22.96, 0 13.5 M0 40.5 C0 33.21, 0 25.93, 0 13.5 M0 13.5 C0 4.5, 4.5 0, 13.5 0 M0 13.5 C0 4.5, 4.5 0, 13.5 0" stroke="#15aabf" stroke-width="4" fill="none"></path></g><g stroke-linecap="round" transform="translate(16.14410268005713 14.88084999381249) rotate(0 17.03024818387587 15.678632645172513)"><path d="M7.84 0 C14.14 0, 20.44 0, 26.22 0 C31.45 0, 34.06 2.61, 34.06 7.84 C34.06 11.79, 34.06 15.73, 34.06 23.52 C34.06 28.74, 31.45 31.36, 26.22 31.36 C19.67 31.36, 13.13 31.36, 7.84 31.36 C2.61 31.36, 0 28.74, 0 23.52 C0 17.81, 0 12.11, 0 7.84 C0 2.61, 2.61 0, 7.84 0" stroke="none" stroke-width="0" fill="#15aabf"></path><path d="M7.84 0 C13.6 0, 19.36 0, 26.22 0 M7.84 0 C13.1 0, 18.36 0, 26.22 0 M26.22 0 C31.45 0, 34.06 2.61, 34.06 7.84 M26.22 0 C31.45 0, 34.06 2.61, 34.06 7.84 M34.06 7.84 C34.06 13.38, 34.06 18.91, 34.06 23.52 M34.06 7.84 C34.06 12.24, 34.06 16.65, 34.06 23.52 M34.06 23.52 C34.06 28.74, 31.45 31.36, 26.22 31.36 M34.06 23.52 C34.06 28.74, 31.45 31.36, 26.22 31.36 M26.22 31.36 C21.26 31.36, 16.31 31.36, 7.84 31.36 M26.22 31.36 C19.87 31.36, 13.52 31.36, 7.84 31.36 M7.84 31.36 C2.61 31.36, 0 28.74, 0 23.52 M7.84 31.36 C2.61 31.36, 0 28.74, 0 23.52 M0 23.52 C0 18.05, 0 12.59, 0 7.84 M0 23.52 C0 19.53, 0 15.54, 0 7.84 M0 7.84 C0 2.61, 2.61 0, 7.84 0 M0 7.84 C0 2.61, 2.61 0, 7.84 0" stroke="#15aabf" stroke-width="4" fill="none"></path></g><g stroke-linecap="round" transform="translate(19 19) rotate(0 15.566292966246806 16.111200782949766)"><path d="M7.78 0 C13.59 0, 19.4 0, 23.35 0 M7.78 0 C12.61 0, 17.43 0, 23.35 0 M23.35 0 C28.54 0, 31.13 2.59, 31.13 7.78 M23.35 0 C28.54 0, 31.13 2.59, 31.13 7.78 M31.13 7.78 C31.13 12.34, 31.13 16.89, 31.13 24.44 M31.13 7.78 C31.13 11.86, 31.13 15.93, 31.13 24.44 M31.13 24.44 C31.13 29.63, 28.54 32.22, 23.35 32.22 M31.13 24.44 C31.13 29.63, 28.54 32.22, 23.35 32.22 M23.35 32.22 C17.24 32.22, 11.14 32.22, 7.78 32.22 M23.35 32.22 C19.72 32.22, 16.08 32.22, 7.78 32.22 M7.78 32.22 C2.59 32.22, 0 29.63, 0 24.44 M7.78 32.22 C2.59 32.22, 0 29.63, 0 24.44 M0 24.44 C0 18.13, 0 11.81, 0 7.78 M0 24.44 C0 20.41, 0 16.37, 0 7.78 M0 7.78 C0 2.59, 2.59 0, 7.78 0 M0 7.78 C0 2.59, 2.59 0, 7.78 0" stroke="#1864ab" stroke-width="4" fill="none"></path></g><g stroke-linecap="round" transform="translate(28 28) rotate(0 13.994534343855548 12.883849997283221)"><path d="M0 0 L27.99 0 L27.99 25.77 L0 25.77" stroke="none" stroke-width="0" fill="#15aabf"></path><path d="M0 0 C7.1 0, 14.2 0, 27.99 0 M0 0 C6.27 0, 12.53 0, 27.99 0 M27.99 0 C27.99 6, 27.99 12, 27.99 25.77 M27.99 0 C27.99 9.53, 27.99 19.06, 27.99 25.77 M27.99 25.77 C20.35 25.77, 12.71 25.77, 0 25.77 M27.99 25.77 C21.81 25.77, 15.63 25.77, 0 25.77 M0 25.77 C0 15.66, 0 5.56, 0 0 M0 25.77 C0 19.75, 0 13.74, 0 0" stroke="#15aabf" stroke-width="4" fill="none"></path></g><g stroke-linecap="round" transform="translate(45.076857921446845 28.259255766736374) rotate(0 4.647636346243985 4.353879811672812)"><path d="M0 0 C2.86 0, 5.72 0, 9.3 0 M0 0 C3.7 0, 7.41 0, 9.3 0 M9.3 0 C9.3 2.16, 9.3 4.31, 9.3 8.71 M9.3 0 C9.3 3.36, 9.3 6.71, 9.3 8.71 M9.3 8.71 C6.84 8.71, 4.38 8.71, 0 8.71 M9.3 8.71 C6.68 8.71, 4.06 8.71, 0 8.71 M0 8.71 C0 5.45, 0 2.19, 0 0 M0 8.71 C0 6.47, 0 4.24, 0 0" stroke="#ffffff" stroke-width="4" fill="none"></path></g><g stroke-linecap="round" transform="translate(29.64567449490096 43.228686372234165) rotate(179.51630973549064 4.647636346243985 4.353879811672812)"><path d="M0 0 C2.53 0, 5.05 0, 9.3 0 M0 0 C3.68 0, 7.36 0, 9.3 0 M9.3 0 C9.3 3.08, 9.3 6.15, 9.3 8.71 M9.3 0 C9.3 2.45, 9.3 4.89, 9.3 8.71 M9.3 8.71 C5.74 8.71, 2.19 8.71, 0 8.71 M9.3 8.71 C6.72 8.71, 4.15 8.71, 0 8.71 M0 8.71 C0 6.58, 0 4.46, 0 0 M0 8.71 C0 6.59, 0 4.46, 0 0" stroke="#ffffff" stroke-width="4" fill="none"></path></g><g stroke-linecap="round" transform="translate(44.76479075493717 42.7538643615037) rotate(179.51630973549064 4.8068985990577175 4.536367494078945)"><path d="M9.61 4.54 C9.61 4.8, 9.59 5.07, 9.54 5.32 C9.49 5.58, 9.42 5.84, 9.32 6.09 C9.23 6.33, 9.11 6.58, 8.97 6.8 C8.83 7.03, 8.67 7.25, 8.49 7.45 C8.31 7.65, 8.11 7.84, 7.9 8.01 C7.68 8.18, 7.45 8.33, 7.21 8.46 C6.97 8.6, 6.71 8.71, 6.45 8.8 C6.19 8.89, 5.92 8.96, 5.64 9 C5.37 9.05, 5.09 9.07, 4.81 9.07 C4.53 9.07, 4.25 9.05, 3.97 9 C3.7 8.96, 3.42 8.89, 3.16 8.8 C2.9 8.71, 2.64 8.6, 2.4 8.46 C2.16 8.33, 1.93 8.18, 1.72 8.01 C1.5 7.84, 1.3 7.65, 1.12 7.45 C0.95 7.25, 0.78 7.03, 0.64 6.8 C0.5 6.58, 0.39 6.33, 0.29 6.09 C0.19 5.84, 0.12 5.58, 0.07 5.32 C0.02 5.07, 0 4.8, 0 4.54 C0 4.27, 0.02 4.01, 0.07 3.75 C0.12 3.49, 0.19 3.23, 0.29 2.98 C0.39 2.74, 0.5 2.5, 0.64 2.27 C0.78 2.04, 0.95 1.82, 1.12 1.62 C1.3 1.42, 1.5 1.23, 1.72 1.06 C1.93 0.89, 2.16 0.74, 2.4 0.61 C2.64 0.48, 2.9 0.36, 3.16 0.27 C3.42 0.18, 3.7 0.11, 3.97 0.07 C4.25 0.02, 4.53 0, 4.81 0 C5.09 0, 5.37 0.02, 5.64 0.07 C5.92 0.11, 6.19 0.18, 6.45 0.27 C6.71 0.36, 6.97 0.48, 7.21 0.61 C7.45 0.74, 7.68 0.89, 7.9 1.06 C8.11 1.23, 8.31 1.42, 8.49 1.62 C8.67 1.82, 8.83 2.04, 8.97 2.27 C9.11 2.5, 9.23 2.74, 9.32 2.98 C9.42 3.23, 9.49 3.49, 9.54 3.75 C9.59 4.01, 9.6 4.41, 9.61 4.54 C9.63 4.67, 9.63 4.41, 9.61 4.54" stroke="#ffffff" stroke-width="4" fill="none"></path></g><g stroke-linecap="round" transform="translate(28 28) rotate(0 5.778785486849756 5.80186826800616)"><path d="M6 0 C7.77 1.91, 9.55 3.83, 11.56 6 M6 0 C7.39 1.5, 8.79 3.01, 11.56 6 M11.56 6 C10.2 7.37, 8.84 8.74, 6 11.6 M11.56 6 C10.01 7.56, 8.46 9.12, 6 11.6 M6 11.6 C3.99 9.73, 1.98 7.85, 0 6 M6 11.6 C4.21 9.93, 2.43 8.27, 0 6 M0 6 C1.38 4.62, 2.77 3.23, 6 0 M0 6 C1.72 4.28, 3.43 2.57, 6 0" stroke="#ffffff" stroke-width="4" fill="none"></path></g></svg>